HIERARCHY
ROOT root
{
	OFFSET 0.000000 0.000000 0.000000
	CHANNELS 6 Xposition Yposition Zposition Zrotation Yrotation Xrotation
	JOINT lhip
	{
		OFFSET 0.058581 -0.082280 -0.017664
		CHANNELS 3 Zrotation Yrotation Xrotation
		JOINT lknee
		{
			OFFSET 0.043451 -0.386469 0.008037
			CHANNELS 3 Zrotation Yrotation Xrotation
			JOINT lankle
			{
				OFFSET -0.014790 -0.426874 -0.037428
				CHANNELS 3 Zrotation Yrotation Xrotation
				JOINT ltoe
				{
					OFFSET 0.041054 -0.060286 0.122042
					CHANNELS 3 Zrotation Yrotation Xrotation
					End Site
					{
						OFFSET 0.000000 0.000000 0.000000
					}
				}
			}
		}
	}
	JOINT rhip
	{
		OFFSET -0.060310 -0.090513 -0.013543
		CHANNELS 3 Zrotation Yrotation Xrotation
		JOINT rknee
		{
			OFFSET -0.043257 -0.383688 -0.004843
			CHANNELS 3 Zrotation Yrotation Xrotation
			JOINT rankle
			{
				OFFSET 0.019056 -0.420046 -0.034562
				CHANNELS 3 Zrotation Yrotation Xrotation
				JOINT rtoe
				{
					OFFSET -0.034840 -0.062106 0.130323
					CHANNELS 3 Zrotation Yrotation Xrotation
					End Site
					{
						OFFSET 0.000000 0.000000 0.000000
					}
				}
			}
		}
	}
	JOINT lowerback
	{
		OFFSET 0.004439 0.124404 -0.038385
		CHANNELS 3 Zrotation Yrotation Xrotation
		JOINT upperback
		{
			OFFSET 0.004488 0.137956 0.026820
			CHANNELS 3 Zrotation Yrotation Xrotation
			JOINT chest
			{
				OFFSET -0.002265 0.056032 0.002855
				CHANNELS 3 Zrotation Yrotation Xrotation
				JOINT lowerneck
				{
					OFFSET -0.013390 0.211636 -0.033468
					CHANNELS 3 Zrotation Yrotation Xrotation
					JOINT upperneck
					{
						OFFSET 0.010113 0.088937 0.050410
						CHANNELS 3 Zrotation Yrotation Xrotation
						End Site
						{
							OFFSET 0.000000 0.000000 0.000000
						}
					}
				}
				JOINT lclavicle
				{
					OFFSET 0.071702 0.114000 -0.018898
					CHANNELS 3 Zrotation Yrotation Xrotation
					JOINT lshoulder
					{
						OFFSET 0.122921 0.045205 -0.019046
						CHANNELS 3 Zrotation Yrotation Xrotation
						JOINT lelbow
						{
							OFFSET 0.255332 -0.015649 -0.022946
							CHANNELS 3 Zrotation Yrotation Xrotation
							JOINT lwrist
							{
								OFFSET 0.265709 0.012698 -0.007375
								CHANNELS 3 Zrotation Yrotation Xrotation
								End Site
								{
									OFFSET 0.000000 0.000000 0.000000
								}
							}
						}
					}
				}
				JOINT rclavicle
				{
					OFFSET -0.082954 0.112472 -0.023707
					CHANNELS 3 Zrotation Yrotation Xrotation
					JOINT rshoulder
					{
						OFFSET -0.113228 0.046853 -0.008472
						CHANNELS 3 Zrotation Yrotation Xrotation
						JOINT relbow
						{
							OFFSET -0.260127 -0.014369 -0.031269
							CHANNELS 3 Zrotation Yrotation Xrotation
							JOINT rwrist
							{
								OFFSET -0.269108 0.006794 -0.006027
								CHANNELS 3 Zrotation Yrotation Xrotation
								End Site
								{
									OFFSET 0.000000 0.000000 0.000000
								}
							}
						}
					}
				}
			}
		}
	}
}
MOTION
Frames: 13
Frame Time: 0.033333
0.751365 0.730441 0.933321 -114.441556 5.217407 89.763187 10.933485 -3.114439 -31.758247 -7.104706 11.024685 43.978446 5.514807 15.616445 -21.812249 0.000000 -0.000000 0.000000 -20.391753 4.459193 14.071541 6.866869 18.165933 95.682627 13.846924 -13.914818 28.052102 0.000000 -0.000000 0.000000 -5.397636 15.668870 14.083669 5.190595 1.826275 5.981707 1.864494 7.033620 -1.428885 2.832200 -8.178656 11.645348 4.687585 -4.385321 4.948807 -8.852376 -2.782204 4.077964 -18.506629 19.408153 -0.503005 -7.821716 -35.762433 10.997665 -0.255047 -22.790511 8.300835 13.358488 15.392306 -1.451985 26.909172 5.179632 4.668689 -11.637819 44.566146 -11.190457 5.778828 7.314239 8.712077 
0.731922 0.722596 0.931693 -109.444109 3.549269 88.694623 6.842627 -7.682803 -29.478555 -7.909713 8.438476 42.804419 8.353237 18.085302 -22.830886 0.000000 -0.000000 0.000000 -17.820390 6.590768 12.630979 8.858901 15.410929 105.949562 13.240271 -18.813361 43.766994 0.000000 -0.000000 0.000000 -5.869138 13.907053 15.174004 6.182096 0.701881 5.329747 2.132098 5.499417 0.140310 2.049430 -10.511510 12.545392 4.827456 -3.406286 5.739312 -10.269187 -3.226193 4.220583 -18.535588 15.397920 0.623485 -7.406031 -38.038865 8.734328 -2.284832 -22.216325 9.235603 14.056860 12.343408 -2.971304 28.151140 0.720780 8.240279 -12.993840 41.097542 -13.943116 10.170748 4.979350 9.470648 
0.715897 0.715039 0.936229 -105.368221 2.359863 86.865426 3.303213 -11.000358 -26.088221 -8.301968 6.132149 41.488946 9.441318 19.358307 -22.281563 0.000000 -0.000000 0.000000 -15.030725 7.937604 5.353070 11.325854 11.136430 114.190683 10.853563 -17.858449 45.380381 0.000000 -0.000000 0.000000 -5.864499 11.290200 16.877060 6.878424 -0.359981 5.103349 1.774751 3.661279 1.627743 1.955392 -9.702676 13.876556 4.338140 -3.770352 5.822624 -11.629521 -3.338180 3.467238 -20.005298 10.687388 1.510714 -5.196728 -39.391001 5.545422 -2.296320 -21.168441 8.575058 16.368128 8.820684 -3.578137 30.857991 -2.140418 9.224557 -15.938679 37.160645 -18.331614 6.824028 5.308245 10.137759 
0.702171 0.706622 0.944812 -101.489440 1.718430 83.600429 -0.661864 -12.802897 -19.918463 -8.220331 2.931257 38.484590 9.540979 19.857512 -21.500759 0.000000 -0.000000 0.000000 -13.422933 9.748872 -6.711776 7.974854 7.221539 114.740489 6.830489 -19.918925 32.746947 0.000000 -0.000000 0.000000 -5.273131 7.136022 20.492035 6.997906 -1.264993 5.295142 1.316388 1.439690 2.512462 0.800141 -7.557768 15.811408 3.200965 -2.992397 5.058551 -13.863009 -3.999790 3.756744 -22.319267 5.859330 1.734600 0.206382 -40.806565 0.217183 -1.548493 -20.777382 8.496547 19.375701 5.920051 -3.357728 33.653588 -5.213938 9.538692 -20.168564 35.542996 -21.954122 7.146396 4.012154 10.361564 
0.690178 0.700382 0.953715 -97.625582 1.518972 78.602354 -4.899702 -10.746393 -11.885843 -7.929842 -2.702101 36.180408 8.092791 19.514055 -22.048934 0.000000 -0.000000 0.000000 -12.159901 8.467018 -22.117701 4.822038 4.342070 109.548261 9.124537 -17.529639 3.718154 0.000000 -0.000000 0.000000 -4.890430 2.637492 25.914098 6.268292 -2.924625 5.553721 1.536060 -0.988953 3.879146 -0.267449 -3.190244 15.986870 1.930074 -2.156573 5.362872 -15.759171 -5.936066 2.055444 -24.942600 1.590039 2.972429 5.948066 -41.982774 -6.743159 1.295265 -19.996795 5.580310 21.683810 4.572998 -3.829998 36.422991 -8.915465 9.056840 -22.144452 35.109478 -24.070359 7.377247 3.816607 11.093357 
0.683114 0.697408 0.961584 -93.874707 2.937970 73.802749 -5.733341 -7.735762 -5.232192 -7.731293 -7.718783 35.141071 5.665035 17.337849 -23.115869 0.000000 -0.000000 0.000000 -11.168711 7.521044 -33.192749 -0.625670 -1.101273 89.343928 12.283294 -13.508340 -15.676716 0.000000 -0.000000 0.000000 -3.897904 -2.068562 32.231850 5.452443 -4.428499 4.548359 1.432279 -3.390186 5.699582 0.784236 2.620372 14.584319 0.260461 -2.685153 6.529822 -17.015456 -6.768907 0.195453 -27.984830 -6.932541 1.568580 11.516138 -42.975419 -12.190502 3.203567 -21.065561 4.606222 23.325849 1.565690 -3.871504 40.111645 -10.462695 8.098311 -22.104628 34.648097 -22.209453 5.343348 4.672079 8.560012 
0.682689 0.696749 0.966511 -93.391126 5.408710 72.173155 -2.975043 -5.363077 -3.432545 -7.712535 -9.556813 35.151804 4.452005 15.111738 -23.450039 0.000000 -0.000000 0.000000 -8.683720 7.700927 -41.191656 -1.859499 -8.473007 58.163275 8.504012 -11.907985 -16.553797 0.000000 -0.000000 0.000000 -2.068566 -5.841154 35.902166 4.579457 -4.780785 3.363953 1.382622 -5.222360 6.748306 -0.959359 6.034263 13.178231 0.627803 -0.577017 7.513949 -18.991850 -7.289851 -1.047882 -31.980955 -16.323953 0.966824 20.725940 -45.767994 -18.563364 4.009553 -21.128862 2.507798 24.576185 -1.602687 -2.365565 43.410313 -10.494092 6.557559 -21.585234 33.291206 -18.632009 4.912322 5.343893 5.113038 
0.680471 0.694242 0.966680 -93.713184 7.200203 72.034085 -0.823924 -4.954345 -3.130991 -7.327238 -8.880491 34.785676 4.660124 13.622795 -23.451223 0.000000 -0.000000 0.000000 -6.042284 10.695076 -45.185854 0.709929 -6.366795 21.223530 2.752520 -17.598972 -9.375315 0.000000 -0.000000 0.000000 -1.689400 -8.346769 37.552058 4.307365 -4.540721 3.043062 2.091380 -6.610497 7.490062 -4.238029 6.728227 9.989465 2.207083 3.335932 8.482966 -19.758957 -6.707169 -1.124352 -38.919331 -27.580941 3.567207 31.861106 -48.932422 -27.074089 9.199603 -18.515233 -2.663790 23.979821 -4.251180 -0.408133 47.468416 -9.997841 8.748595 -23.270931 31.376730 -17.301463 7.031659 3.461845 2.654393 
0.675411 0.692307 0.968727 -92.532117 8.693103 71.304107 0.541514 -4.327692 -2.179825 -7.127547 -9.353120 35.422049 2.158511 11.697769 -24.831992 0.000000 -0.000000 0.000000 -5.401241 11.058620 -53.864213 0.621066 -8.530719 12.497265 10.368907 -7.846379 -11.513158 0.000000 -0.000000 0.000000 -1.804685 -10.749474 40.651968 3.989777 -5.419694 1.450401 2.565459 -7.106285 7.598398 -4.800240 9.208122 9.191694 3.116113 3.762416 8.231905 -19.359408 -7.931703 -2.174736 -47.137054 -34.288024 7.461078 41.942714 -52.897757 -34.107708 8.314833 -18.494625 -4.415561 23.560271 -5.329146 0.764547 51.377777 -11.709135 8.342652 -23.688867 31.356305 -13.526447 7.750801 4.008320 2.464577 
0.666967 0.694227 0.971918 -91.874233 9.609660 69.416010 1.752487 -3.980596 0.915268 -7.364684 -9.810657 35.085416 1.234758 11.343411 -26.174681 0.000000 -0.000000 0.000000 -7.591015 13.674498 -62.879079 -1.841678 -15.596027 21.875718 8.737034 -10.795973 -13.565257 0.000000 -0.000000 0.000000 -2.689490 -12.712266 42.982729 3.574232 -5.000828 1.370614 2.002092 -7.982306 7.761971 -4.466691 10.545093 8.802007 3.349940 4.018917 8.270338 -19.334707 -9.895596 -1.619198 -51.364652 -39.434580 10.228596 49.592896 -57.166624 -37.394538 7.975543 -20.185359 -4.991713 23.436144 -5.918734 1.664821 55.560207 -12.933763 8.638770 -24.657621 31.661398 -10.779981 7.855096 4.886560 0.584066 
0.657923 0.695137 0.977378 -91.375161 10.312438 67.488566 2.011210 -3.896758 4.870094 -6.708173 -11.038938 33.417107 0.745181 11.678600 -26.721135 0.000000 -0.000000 0.000000 -9.834650 15.976857 -71.176955 -4.756366 -16.245723 38.238685 8.361805 -11.143055 -13.474360 0.000000 -0.000000 0.000000 -3.976063 -14.565508 45.007538 3.251216 -4.098956 1.784943 1.511148 -8.675324 7.656654 -4.587053 11.118166 8.123634 3.226155 4.315166 9.014692 -19.562875 -11.298696 -1.832935 -56.558874 -41.778076 14.379417 58.282011 -60.874130 -42.175466 6.578383 -20.358235 -2.135595 23.102920 -5.819341 1.936011 58.876152 -13.513990 9.156279 -24.946751 32.160623 -9.976479 7.803246 5.295933 0.499112 
0.648905 0.694628 0.985155 -90.103584 11.263367 66.660282 2.542121 -3.874670 7.697938 -6.047791 -12.258747 31.461904 0.141473 11.415525 -26.365719 0.000000 -0.000000 0.000000 -11.333017 16.757070 -76.913002 -6.488964 -16.148292 51.552817 8.576827 -9.786552 -12.874636 0.000000 -0.000000 0.000000 -4.783623 -16.515070 45.721706 3.314719 -3.807910 2.290973 1.173123 -8.930207 7.286066 -4.368020 11.591453 8.161025 2.795818 4.379308 9.759517 -20.294670 -12.087704 -1.312246 -60.769645 -42.696033 17.301172 65.522810 -63.947454 -45.146085 2.707126 -21.501524 1.021986 23.045013 -5.488453 2.247089 60.455606 -13.250277 9.118792 -24.469285 33.743948 -7.813713 8.826552 6.263613 0.156594 
0.644482 0.693628 0.993703 -88.303925 12.649811 67.901226 3.812940 -4.358318 7.957573 -5.358723 -12.538249 29.269144 -0.356899 10.221618 -25.549675 0.000000 -0.000000 0.000000 -13.082336 16.369857 -77.954702 -8.026381 -19.294064 53.630354 8.099996 -10.225662 -13.524989 0.000000 -0.000000 0.000000 -3.805489 -17.710082 45.240931 3.841455 -3.716487 1.431774 1.543462 -9.311947 6.683790 -4.112885 10.765097 8.781487 2.248037 4.806155 10.190749 -21.365606 -12.429977 0.093034 -65.586132 -42.875608 20.160146 70.396630 -66.625577 -47.160631 -0.101039 -21.003136 3.207763 22.935958 -5.513346 2.555016 60.578368 -12.801993 8.927002 -23.896548 36.355428 -5.876779 9.221631 7.056761 0.077755 
